<svg xmlns="http://www.w3.org/2000/svg" width="20" height="20" viewBox="0 0 20 20"><g fill="none" fill-rule="evenodd">
  <path fill="#87BBFD" d="M12 16.035h4.001a.998.998 0 0 0 .999-.998V8.032c0-.403-.24-.75-.584-.907L10.52 2.236l-5.96 4.9a.998.998 0 0 0-.56.896v7.005c0 .551.447.998.999.998H9V12.63c0-.33.277-.596.607-.596h1.786a.6.6 0 0 1 .607.596v3.404zm-1.5-6.2a1.3 1.3 0 1 0 0-2.6 1.3 1.3 0 0 0 0 2.6z"/>
  <path fill="#6772E5" d="M10.502 2.004a.403.403 0 0 0-.307.085L3.052 7.873a.4.4 0 0 0-.06.57l.75.925c.138.17.395.2.568.06l6.192-5.015 6.193 5.015c.173.14.43.11.569-.06l.749-.926a.4.4 0 0 0-.06-.569L10.81 2.09a.403.403 0 0 0-.308-.085z"/></g></svg>
