<svg xmlns="http://www.w3.org/2000/svg" width="20" height="20" viewBox="0 0 20 20"><g fill="none" fill-rule="evenodd">
  <path fill="#AAB7C4" d="M7.538 5.4v5.64c0 .55-.444.996-1 .996-.552 0-1-.455-1-.995V5.414L3.712 7.241a.999.999 0 0 1-1.417.002.994.994 0 0 1 .002-1.416L5.83 2.295A.999.999 0 0 1 6.546 2c.259-.002.518.097.717.295l3.53 3.532c.4.4.394 1.026.003 1.416a.999.999 0 0 1-1.416-.002l-1.84-1.84z"/>
  <path fill="#424770" d="M14.123 14.722v-5.64a.995.995 0 0 0-1-.995c-.552 0-1 .455-1 .995v5.626l-1.826-1.826a.999.999 0 0 0-1.416-.002.994.994 0 0 0 .002 1.416l3.531 3.531c.198.199.458.297.716.296a1 1 0 0 0 .717-.296l3.531-3.531c.4-.4.393-1.026.002-1.416a.999.999 0 0 0-1.416.002l-1.84 1.84z"/></g>
</svg>
