<svg xmlns="http://www.w3.org/2000/svg" width="20" height="20" viewBox="0 0 20 20"><g fill="none" fill-rule="evenodd"><path fill="#AAB7C4" d="M10.002 18.005a8.003 8.003 0 1 1 0-16.005 8.003 8.003 0 0 1 0 16.005zm4.864-12.867a6.86 6.86 0 0 0-4.92-2.012c-3.696.03-6.733 3.013-6.822 6.702a6.84 6.84 0 0 0 .486 2.69l.2-.052a4.97 4.97 0 0 1 1.328-4.655 4.99 4.99 0 0 1 7.053 0l-4.369 4.362a4.978 4.978 0 1 0 7.045-7.036l-.002.001z"/><path fill="#424770" d="M13.02 9.193a3.125 3.125 0 1 1-6.038 1.617 3.125 3.125 0 0 1 6.038-1.617z"/></g></svg>